<svg xmlns="http://www.w3.org/2000/svg" version="1.1" xmlns:xlink="http://www.w3.org/1999/xlink" xmlns:svgjs="http://svgjs.dev/svgjs" width="1540" height="560" preserveAspectRatio="none" viewBox="0 0 1540 560"><g mask="url(&quot;#SvgjsMask1023&quot;)" fill="none"><path d="M318.94 648.39C486.7 610.76 544.33 175.73 810.65 167.58 1076.96 159.43 1056.5 237.58 1302.35 237.58 1548.21 237.58 1669.89 167.76 1794.06 167.58" stroke="rgba(51,121,194,0.58)" stroke-width="2"></path><path d="M544.33 650.69C709.89 648.69 840.74 468.79 1178.99 461.35 1517.24 453.91 1640.34 187.48 1813.65 181.35" stroke="rgba(51,121,194,0.58)" stroke-width="2"></path><path d="M444.19 671.47C584.58 656.27 667.97 352.03 908.49 349.81 1149 347.59 1140.64 419.81 1372.78 419.81 1604.93 419.81 1719.69 350.01 1837.08 349.81" stroke="rgba(51,121,194,0.58)" stroke-width="2"></path><path d="M468.05 608.19C644.15 599.78 763 302.78 1100.01 295.27 1437.01 287.76 1569.18 139.64 1731.96 138.47" stroke="rgba(51,121,194,0.58)" stroke-width="2"></path><path d="M391.22 560.65C505.22 557.09 599.77 383.81 811.71 383.6 1023.65 383.39 1021.95 453.6 1232.19 453.6 1442.44 453.6 1546.11 383.84 1652.68 383.6" stroke="rgba(51,121,194,0.58)" stroke-width="2"></path></g><defs><mask id="SvgjsMask1023"><rect width="1540" height="560" fill="#ffffff"></rect></mask></defs></svg>